<?xml version="1.0" encoding="UTF-8" standalone="no"?>
<svg xmlns:rdf="http://www.w3.org/1999/02/22-rdf-syntax-ns#" xmlns="http://www.w3.org/2000/svg" height="1813pt" width="962pt" version="1.1" xmlns:cc="http://creativecommons.org/ns#" xmlns:dc="http://purl.org/dc/elements/1.1/" viewBox="0 0 962 1813">
<path d="m440.68 11.455c-0.76 0.048-1.52 0.288-2.07 0.707-6.87 5.213-12.31 12.012-18.31 18.162-12.76 12.65-25.13 25.726-38.64 37.588-11.64 11.288-23.27 22.588-34.01 34.738-9.47 10.53-20.27 19.74-29.56 30.44-6.51 7.64-14.18 14.16-20.99 21.52-11.31 12.02-23.74 22.95-34.45 35.54-16.01 16.89-32.95 32.89-49.18 49.56-5.55 6.12-11.03 12.35-17.65 17.36-4.32 3.18-7.31 7.69-10.83 11.67-18.71 18.8-37.04 38-55.9 56.65-4.64 5.32-12.5 4.11-18.78 4.39-11.135-0.2-21.872-4.73-33.072-3.25-3.112 0.52-5.275 3.05-7.588 4.97-2.575 10.02-1.812 20.66-4.712 30.62-4.75 3.96-10.475 6.43-15.575 9.85-4.975 5.9-3.388 13.99-3.863 21-3.25 4.1-8.738 5.88-12.562 9.44-0.9 10.05 1.149 20.02 3.849 29.64 0.05 1.48 1.487 3.49 0.037 4.65-2.2-1.61-6.612-4.82-8.812-6.42-1.463-7.12 0.264-14.82-2.899-21.53-2.45-5-4.688-10.57-9.713-13.56-2.8-0.71-5.7254-1.37-8.6129-0.97-0.775 4.79 1.7996 9.34 2.4746 13.97 3.1373 10.75 3.1133 21.98 3.6503 33.07 10.625 10.93 21.176 22.03 30.363 34.23 3.763 5.62 5.925 12.16 9.625 17.83 3.65 5.03 7.112 10.39 12.225 14.09 10.337 8.36 22.062 16.03 28.287 28.23 1.85 5.76 3.625 11.87 2.6 18.01-2.3 3.69-6.587 6.9-6.162 11.7 0.362 19.77-2.075 39.44-5.538 58.87-1.762 8.3-6.487 15.58-9.025 23.63-0.75 2.55 1.251 4.84 2.213 7.01 6.05 10.59 12.338 21.04 18.65 31.48 6.33 11.04 8.85 23.75 15.21 34.77 9.73 16.28 14.53 34.78 21.48 52.28 3.59 7.27 6.34 15 10.59 21.95 4.73 7.8 9.05 15.85 13.93 23.56 2.4 3.79 4.09 8.11 7.74 10.98 5.45 4.98 9.26 11.66 15.56 15.71 6.59 4.6 12.12 10.57 19.03 14.73 9.46 4.84 19.79 7.91 30.34 9.14 4.13-0.1 8.05-1.78 12.09-2.43 6.16-1.45 12.77-0.98 18.52-3.92 12.83-6.42 24.73-14.91 34.52-25.46 8.24-8.52 17.34-17.06 21.55-28.44 3.5-9.36 7.39-18.57 10.79-27.96 8.65-20.86 18.38-41.26 28.59-61.39 3.52-7.73 8.37-14.87 11.12-22.93 0.49-4.73-0.97-9.58 0.53-14.18 1.41-4.29 3.41-8.36 4.77-12.66 0.94-2.34 1.38-5.18 3.65-6.64 1.59 2.14 2.74 4.59 3.34 7.19 3.32 13.41 7.07 26.71 11.26 39.87 5.98 18.94 8.52 38.79 14.68 57.69 2.06 5.1 5.02 9.86 8.6 14.05 10.55 12.5 20.18 25.74 29.53 39.15 4.99 7.01 7.77 15.36 8.79 23.88 1.09 11.27 2.51 22.93-0.41 34.1-2.09 8.43-4.2 17.18-9.49 24.31-3.31 6.1-9.9 9.55-13.02 15.75-3.26 6.24-7.98 11.72-10.34 18.42-3.09 8.32-4.46 17.13-6.69 25.69-2.05 7.78-8.65 14.04-7.79 22.56-0.84 18.69-5.53 36.89-7.97 55.29-1.46 8.6-4.73 16.7-6.43 25.2-2.12 12.1-4.65 24.1-6 36.4-3.57 26.7-2.9 53.7-3.02 80.6-1.03 13.6-1.09 27.3-3.24 40.8-0.83 7.4-0.58 14.9-2.56 22.2-4.64 19-8.6 38.2-14.52 56.8-1.94 6.3-3.14 13-6 19-3.3 6.7-4.83 14.1-7.84 20.9-6.54 14.8-10.94 30.5-16.88 45.6-4.2 10.5-7.94 21.1-12.1 31.7-3.04 7.7-7.88 14.6-11.97 21.8-2.88 5-5.03 10.5-8.41 15.3-15.33 20.8-32.21 40.6-46.54 62.2-4.15 6.9-10.63 11.9-16.39 17.3-6.26 5.7-12.79 11.7-21.1 14-8.44 2.4-17.74 2.4-25.46 6.9-3.4 2.7-8.18 4.8-9.49 9.4 5.39 2.5 11.28 4.2 16.29 7.5 8.8 5.6 17.12 12.6 27.55 15.1 5.06 1.7 10.6 2.7 15.82 0.8 8.59-1.5 16.46-5.4 24.8-7.7 30.41-11 54.85-32.9 80.24-52.1 2.23-1.6 4.1-3.8 6.78-4.6 1.08 10.9 2.77 21.8 2.11 32.8-0.12 12.1-1.98 24-3.33 35.9-2.37 17.5-4.21 35-6.02 52.6-2.72 14.4-2.29 29.2-3.76 43.8-2.65 19.3-9.33 37.9-12.22 57.2-0.55 4.3 0.45 8.5 0.47 12.8 0 19.7-1.83 39.5-3.02 59.2-0.39 14.6-2.87 28.9-5.31 43.3-1.31 7.3-3.32 14.5-4.1 21.9-0.55 6.5-1.22 13-2.06 19.4-1.44 14.6-1.86 29.4-4.73 43.9-0.91 4.3-3.14 8.2-4.11 12.6-1.11 6.9-0.15 14.2-2.24 21.1-1.45 6-2.91 12-4.61 18-3.35 9.7-7.55 19.2-9.31 29.4-3.02 15.2-0.69 30.8-2.45 46.1-1.85 16.5-1.27 33.2-0.43 49.8 0.15 5.4 0 10.8 0.01 16.3 0.04 4.7 0.61 9.6 0.46 14.4-0.24 6.4 1.23 12.7 2 19.1 1.18 9.9 2.71 19.9 3.16 29.9-0.19 2.3-1.16 4.4-1.76 6.7 2.76 0.1 5.53 0 8.29 0.2 3 0.1 4.56 3.2 6.52 5.1 4.7 8.1-0.99 17.7 3.01 26l0.99 2.9c-0.48 5.5 4.79 6 8.5 6.3 10.22 0.2 20.45-1 30.67-0.3 14.88 1.2 29.8 1.1 44.71 1.2 23.69 1.1 47.43-0.1 71.09-1.4 7.64-0.7 15.54 0.2 23.04-1.7 1.79-3.2 3.2-6.7 3.97-10.3 0.74-8-2.75-15.6-7.18-21.9-7.49-13.5-26.85-12.3-35.16-25-5.3-8.4-9.55-17.4-12.35-26.8-0.6-9.7 0.61-19.3 2.02-28.8 0.94-5.8-0.08-11.7-0.35-17.4-0.89-12.1 0.72-24.3 1.62-36.3 0.7-8.2 0.5-16.5 2.99-24.4 5.95-15.9 7.04-33.2 11.68-49.5 4.47-10.3 11.09-19.6 14.89-30.2 2.7-8.1 5.37-16.1 6.8-24.5 1.95-8.5 1.56-17.2 2.98-25.7 2.24-11.3 3.79-22.8 5.8-34.2 2.38-14.4 5.76-28.6 8.48-42.8 1.86-11.4 6.28-22.2 11.18-32.5 3.3-7 4.48-14.8 6.29-22.3 2.86-12.1 2.5-24.9 7.33-36.5 6.21-14.7 8.51-30.7 13-45.9 5.32-18.9 7.66-38.3 11.36-57.4 2.34-18.1 2.76-36.4 4.05-54.6-0.55-7.3 3.57-13.6 6.51-19.9 1.08-1.7 1.91-4.6 4.48-4.1 5.11 1.8 10.15 5.5 15.82 4.6 2.2-5.3 4.09-10.7 7.24-15.4 12.41-19.5 24.91-39.3 32.51-61.2 5.65-14.1 10.89-28.4 16.22-42.6 3.32-9.7 7.12-19.3 9.46-29.3 1.6-6.1 1.45-12.3 2.82-18.4 3.7 0.3 6.74 2.9 9.14 5.5 2.35 4.2 3.55 8.8 5.54 13.1 3.42 7.5 4.21 15.8 6.29 23.8 2.25 9.2 4.19 18.6 7.23 27.6 1.14 3.3 2.43 6.5 2.88 9.9 1.58 15.6 5.97 30.7 7.31 46.3 1.06 18.3 9.14 35.1 12.02 53 3.36 18.8 10.93 36.4 16.74 54.5 6.02 14.9 13.64 29.5 15.57 45.7 1.55 11.3 3.32 22.5 3.56 33.9 0.66 28.7 12.13 55.8 14.3 84.3 2.55 14.7 5.59 29.4 8.77 44 1.52 9 1.51 18.1 2.54 27.2 4.6 31.8 13.08 63.1 26.71 92.2 5 11.7 10 23.4 15 35 2.63 6.8 5.41 13.8 5.64 21.1 0.22 3.5 2.51 6.2 4.05 9.2 6.35 10.3 11.91 21.2 16 32.7 3.36 9.7 9.09 18.3 11.96 28.1 4.25 11 5.08 22.9 8.19 34.3 6.24 26.6 9.27 54.3 20.47 79.4 1.68 3.1 2.78 7.5 6.63 8.6 6.94 2.5 14.49 2.4 21.53 4.6 1.35 4 2.47 8.3 3.51 12.5-0.74 6.1 5.92 9.8 11.15 8.3 22.47 0.1 44.96-0.2 67.46 0.3 0.45-0.7 1.37-2.1 1.82-2.8-1.16-7.7-2.78-15.4-2.31-23.2 1.66-1 3.51-1.9 5.53-1.9 11.08-0.2 22.48-0.6 33.26 2.7 15.7 4.9 29.6 14 44.9 20 5.3 2 10.5 5.3 16.5 4.4 12.1-0.2 24.2-1.2 36.4-1.8 28.8-0.7 57.7 0.4 86.5-0.4 1.9-0.3 2.3-2.6 3-4 0.8-2-0.8-3.6-1.8-5.1-4.2-5.4-7.4-11.7-12.1-16.6-10.7-5.8-22.6-8.7-34.5-10.3-9.7-2.5-19-6.2-28.6-8.9-5.8-0.8-9.1-6-13.4-9.4-16.3-13.3-33.6-25.6-50.7-37.9-4.3-3-6.5-7.9-9-12.2-4.6-8.3-10.2-15.9-14.4-24.4-4-8.2-11-14.8-14-23.5-3.7-11.2-9-21.7-13.7-32.4-4.61-4.7-11.57-6.8-15.06-12.6-2.33-3.9-5.78-7.6-5.69-12.3-0.05-9.5-0.36-19-1.1-28.5-0.5-4.3-0.71-8.9-0.7-13.2-0.14-11.5 0.39-22.9-0.13-34.3 0.4-5.1-1.54-9.8-3.76-14.2-4.02-8.4-9.09-16.2-12.51-24.9-5.88-14.5-8.33-30.1-12.19-45.3-3.02-13.3-7.12-26.5-8.47-40.1-0.93-7.5-3.37-14.7-4.34-22.1-0.99-7.9-2.1-15.9-3.78-23.7-5.35-22.9-6.17-46.6-11.78-69.5-5.02-21-5.89-42.8-11.23-63.7-2.38-11-6.78-21.4-8.76-32.5-1.95-11.6-4.98-23-6.64-34.6-3.47-21.5-12.45-41.8-13.8-63.7-0.6-17.8-5.36-35-10.79-51.8-4.45-17.5-7.81-35.4-10.38-53.3-2.37-13.8-3.19-27.8-6-41.5-1.77-9.5-2.55-19.1-3.87-28.5-0.77-5.4-2.39-10.6-2.98-16-1.51-11.3-1.18-22.8-3.3-34.1-2.78-19.6-9.01-38.5-11.95-58-4.51-21-7-42.4-11.79-63.3-1.27-10-1.65-20-2.5-30-0.94-37.2-8.04-74.2-4.42-111.4 2.27-22.7-9.97-43.06-12.99-65.04-0.68-5.46-0.35-11.04-0.64-16.49 0.15-7.41-2.03-14.53-3.68-21.65-1.42-5.87-1.73-11.94-3.33-17.77-3.71-13.06-7.4-26.15-12.56-38.73-3.25-7.9-5.12-16.28-8.21-24.22-2.8-7.26-5.46-14.64-6.5-22.4-0.63-3.04-0.28-6.26 1.19-9 2.49-2.76 6.19-1.1 9.05 0.01 7.78 3.42 15.53 6.92 23.18 10.63 3.36 1.59 6.43 3.8 9.99 4.98 2.21 0.28 4.46-0.98 5.9-2.61 1.81-3.5 1.58-7.7 2.26-11.43 2.43-23.63 5.65-47.36 3.6-71.14-1.49-13.72-3.05-27.51-7-40.78-4.04-14.03-11.57-26.75-15.79-40.71-1.46-5.2-1.61-10.64-0.67-15.93 1.12-6.26 1.25-12.88 4.06-18.72 4.17 4.44 4.72 12.09 10.92 14.44 5.71 2.97 12.97 3.68 17.43 8.72 5.1 5.5 11.16 10.3 18.21 13.03 15.59 6.01 29.47 15.79 41.74 27.02 7.46 7.19 16.53 12.51 23.68 20.05 3.58 3.94 7.54 7.52 11.81 10.73 8.97 7.66 20.78 11.02 29.44 19.17 4.57 3.56 8.49 8.93 14.72 9.41 9.33 0.6 18.57-1.37 27.74-2.93 8.87-1.64 17.67-3.36 26.37-5.99 3.5-1.15 5.6-4.55 8-7.15 5.4-6.64 11.5-12.84 18.8-17.36 2-1.75 5.1-2.65 6-5.39 4.6-12.81 8.8-25.8 14-38.39 11.2-25.33 22.5-50.62 34.3-75.72 11.8-23.75 21.1-48.6 30.2-73.48 0.5-2.56-1.2-6.99-4.5-5.56-6.6 2.91-14.4 1.66-19.8-3.03-8-7.22-16.4-14.01-25.7-19.42-9.9-5.44-20.6-9.21-30.6-14.37-7-3.63-14.6-5.97-21.6-9.6-7.5-3.7-14.6-8.28-21.3-13.24-3.6 4.1-5 9.6-7.3 14.49-5.7 13.8-5.6 29.06-10.44 43.12-4.28 11.18-7.1 22.83-9.3 34.57-1.45 10.09-1.64 20.44-4.71 30.26-2.49 1.5-5.62 0.07-7.55-1.69-0.34-4.14-0.89-8.21-1.64-12.23-3.12-3.13-6.54-6.31-10.87-7.52-9-3.46-19.5 2.23-27.91-3.05-6.49-4.79-9.97-12.58-15.58-18.19-8.62-6.49-17.32-12.95-26.96-17.86-5.06-4.36-8.43-10.85-9.04-17.53-0.61-5.46-0.93-10.97-1.85-16.38-0.6-2.92-3.38-4.54-5.41-6.39-4.57-3.33-8.55-7.39-13.24-10.53-2.5-0.22-4.98 0.28-7.45 0.21-3.51-1.77-5.8-5.3-8.16-8.28-1.04-1.3-0.85-3-0.83-4.53 0.29-6.05-0.1-12.13-0.98-18.1-4.24-1.91-9.93 0.67-13.81-2.78-2.96-3.09-6.39-6.84-5.95-11.44-0.04-6.29-1.57-12.58-4.52-18.12-6.05-11.68-12.71-23.03-19.61-34.23-3.21-5.33-4.61-11.7-8.69-16.49-2.32-1.41-5.58-2.37-7.98-0.63-2.53 2.16-4.22 5.09-6.7 7.29-5.71 4.61-11.92 9.45-19.3 10.89-14.46 1.83-29.01 0.36-43.37-1.44-14.5-0.87-29.18-0.82-43.48 1.93-2.92-0.62-6.98 2.6-9.61-0.01-8.27-6.69-17.77-11.98-24.68-20.21-6.2-7.06-12.51-14.07-19.58-20.26-1.54-1.51-3.82-1.05-5.76-1.43-0.04-1.73-0.15-3.74 1.21-5.06 6.46-5.18 14.1-8.52 21.05-12.96 6.17-3.82 12.09-8.17 18.68-11.33 6.16-3.45 12.87-6.13 18.48-10.49 2.35-6.42 2.84-14.13-0.51-20.26-3.31-6.18-12.24-6.58-15.24-12.85 1.73-5.92 5.15-11.31 6.18-17.43 0.52-2.08-1.23-4.09-3.22-4.4-2.7-0.98-6.88 0.22-7.86-3.03 2.45-6.78 6.5-12.93 8.44-19.91-2.41-4.65-12.98-2.18-9.14-10.42 4.99-5.61 11.59-9.69 16.08-15.77 3.2-5.55-3.65-7.78-6.54-10.41-6.38-4-11.45-9.63-17.25-14.35-7.24-3-14.89-4.72-22.3-7.14-0.26-7.16 1.57-14.61-0.95-21.51-2.03-6.14-9.15-7.77-13.46-11.81-3.89-1.87-4.86-6.03-6.81-9.4-4.79-9.38-11.54-17.49-18.17-25.57 3.54-4.842 8.18-8.942 10.77-14.417 1.42-4.312 1.93-9.012 1.18-13.5-0.42-0.162-1.26-0.488-1.67-0.638-6.38 6.762-10.83 17.613-21.25 18.576 1.01-5.113 5.76-8.375 8.3-12.688 4.15-5.737 9.62-12.375 7.21-20-1.57-3.437-4.74-5.825-7.27-8.5-4.5-4.987-11.16-6.526-17.09-9.013-3.99-1.45-7.84-3.462-12.05-4.162-3.88-1.288-7.94 0.324-10.54 3.136-2.23 2.463-3.56 5.601-5.95 7.926-4.35 2.4-9.07 4.063-13.31 6.676-3.74 1.862-7.44 4.525-11.77 4.687-3.71-1.537-7.06-3.863-10.88-5.138-7.25-2.588-15.21-1.8-22.54 0.125-8.49 2.262-17.34 4.125-24.76 9.062-9.43 6.388-19.22 12.276-28.17 19.326-7.58 6.25-17.53 9.65-23.56 17.702-8.92 10.84-15.62 23.66-18.56 37.44-1.14 3.92-4.55 6.57-6.64 9.96-5.43 7.97-10.95 16-15.18 24.69-4.15 7.82-4.37 16.82-5.93 25.35-0.61 4-1.45 8.02-1.32 12.08 0.7 7.95-1.19 16.28 2.23 23.83 1.93 5.78 3.51 12.36 8.71 16.21 1.03-2.81 1.83-5.7 2.96-8.49 0.52 0.06 1.56 0.16 2.08 0.21 0.59 5.67 1.28 11.32 2.06 16.96 1.77 3.65 4.68 6.58 6.92 9.94 3.45 4.64 5.86 9.94 9.12 14.7 0.52 0.03 1.51 0.08 2.03 0.11 0.91-8.82-6.37-17.08-2.5-25.74l1.01-0.31c2.38 7.24 2.04 15.07 3.81 22.47 1.29 4.2 3.88 7.86 6.65 11.24 3.8 2.05 8.04 3.11 11.83 5.23 1.86 3.27 3.39 6.74 5.24 10.03 1.07-4.06 1.44-8.3 2.89-12.25 1.92-1.29 4.32-2.01 6.62-1.41 3.45 2.06 5.27 6.16 9.07 7.72 7.69 3.08 16.29 5.21 21.99 11.65 7.81 7.42 10.01 18.42 16.3 26.87 8.88-1.2 17.71-2.51 26.64-3.36 15.59-1.16 30.82 3.11 45.93 6.24 6.76 1.4 12 6.19 16.89 10.73 6.41 6.52 11.94 13.85 17.95 20.75 5.78 6.33 13.33 10.62 19.74 16.26 1.95 1.49 3.71 3.49 6.25 3.96 2.14-14.37 4.73-28.68 6.11-43.17 3.49-0.94 5.78 2.18 8.01 4.3 10.08 10.63 20.43 21.65 26.42 35.21-4.44 5.97-10.32 10.89-13.7 17.64-1.04 2.65-1.08 6.09 1.43 7.81 2.42 2.16 6.63 0.45 7.57-2.64 4.41-5.4 10.6-11.13 18.2-9.76 3.55 2.34 6.35 5.69 10.08 7.79 4.99 2.82 10.2 5.26 15.07 8.34 2.25 8.71-1.87 16.95-6.13 24.22-2.7 3.97-6.55 6.96-9.58 10.66 6.47 7.44 16.17 11.17 22.14 19.08 5.47 7.4 10.33 15.3 16.61 22.07 7.41 8.14 14.57 16.56 20.17 26.08 6.85 10.96 9.31 23.91 12.43 36.26 2.32 9.96 5.16 19.98 4.98 30.31 0.21 16.78 0.75 33.69-1.94 50.32-1.65 11-1.9 22.13-1.78 33.25 0.25 17.1-2.11 34.32 0.95 51.29 2.8 13.65 2.55 27.64 3.42 41.49 0.41 5.5 1.77 10.99 4.53 15.79 6.07 10.59 9.84 22.59 10.31 34.81 0.65 9.91 2.57 19.66 4.16 29.46 1.05 9.32-4.5 17.23-7.51 25.6-3.84 10.72-7.1 21.66-11.5 32.18-4.3 10.19-7.7 20.72-11.16 31.22-1.89 6.07-4.69 11.92-8.59 16.97-0.71-0.16-2.13-0.48-2.84-0.63-2.43-6.42-3.45-13.35-6.95-19.32-6.78-12.67-14.25-25.31-25.04-34.99-6.11 1.83-8.5 8.4-11.22 13.46-5.21 10.93-12.3 20.9-16.56 32.28-2.99 8.2-3.3 17.09-6.25 25.29-3.27-0.12-8.04 1.19-9.63-2.23-5.2-19.61-16.97-37.15-32.16-50.46-12.85-11.73-27.89-20.57-42.26-30.23-8.16-5.36-15.41-12.01-23.84-16.97-6.77-4.12-14-7.59-20.11-12.69-4.57-3.9-9.74-7.55-11.67-13.51-0.72-2.3-2.81-5.23-1.02-7.56 1.94-3.3 4.85-5.93 7.74-8.37 4.57 0.54 8.9 2.2 13.36 3.25 6.71 2.05 13.8 3.06 20.12 6.25 10.17 4.91 20.1 10.39 29.4 16.83 5.83 4.59 10.14 10.76 15.5 15.86 3.48-6.26 4.74-13.44 6.02-20.38 3.65-20.9 2.16-42.19 4.35-63.22 1.26-12.95-0.66-25.95 0.27-38.91-2.15-49.28-8.29-98.29-16.26-146.93-5.31-27.55-13.08-54.52-21.06-81.38-4.57-13.54-9.59-26.92-14.92-40.17-6.26-15.51-15.28-29.65-23.08-44.4-12.55-23.12-31.69-41.5-49.97-60.02-6.75-6.88-12.09-14.92-16.95-23.19-0.72-1.06-1.51-2.05-2.36-2.99-2.3 2.18-2.56 5.58-4.11 8.24-1.36 2.29-4.1 6.87-5.46 9.16-2.11 8.7-0.89 17.79-2.51 26.55-2.48 8.94-7.18 17.05-11.29 25.3-2.69 3.6-2.65 8.08-3.61 12.24-2.05 1.16-4.39 1.71-6.62 2.44-9.55 2.66-18.26 7.54-27.36 11.36-9.84 4.14-19.26 9.15-28.99 13.52-14.63 6.53-28.67 14.29-42.32 22.68-9.01 5.25-17.49 11.56-27.28 15.37-8.78 2.52-15.65-6.28-24.41-4.87-3.24 1.25-5.8 3.71-8.24 6.1-3.81 9.86-4.79 20.56-6.27 30.96-1.53 12.33-3.19 25.83 2.67 37.3 0.77 2.73 3.45 3.94 5.34 5.77-3.86 5.24-8.5 9.94-11.79 15.62-4.17 6.4-7.11 13.54-9.23 20.85-1.72 7.51-2.33 15.22-3.35 22.85-2.13 12.55-0.17 25.26-0.27 37.9-1.92 0.85-3.95 1.45-5.84 2.35-1.67 2.75-2.47 6.09-2.25 9.3 1.99 4.15 5.89 7 8.15 10.99-0.4 2.85 0.19 8.05-2.77 8.86-4.48 2.66-7.35-1.42-9.45-4.32-2.01-2.95-4.36-5.75-5.68-9.1 0.52-5.54 2.52-10.92 1.63-16.54-2.15-10.83-3.09-22.63-9.81-31.8-5.29-8.35-12.85-15.03-17.49-23.81-1.99-4.3-2.65-9.08-3.77-13.63-3.33-15.75-8.86-30.91-13.81-46.2-1.48-3.53-3.01-7.04-4.54-10.52-0.88-2.07-2.18-4.02-4.24-5.06-1.35 1.32-3.41 2.33-3.51 4.47-0.63 8-0.42 16.23-3.23 23.91-3.31 8.88-6.29 18.02-11.55 26.01-11.25 15.84-20.74 32.97-33.6 47.61-5.14 5.74-9.86 11.88-15.33 17.33-1.18 0.85-2.31 2.54-3.97 2.21-5.29 1.83-5.59-3.17-7.49-5.96-0.8-2.14-3.511-1.59-4.973-0.52-1.15 2.43-1.824 5.04-2.836 7.54-0.538 0-1.613 0.03-2.151 0.04-1.512-17.15-1.362-34.41-0.65-51.58 0.562-7.74 1.112-15.53 3.387-22.98 2.112-7.19 3.325-14.6 5.4-21.79 0.388-0.32 1.143-0.99 1.513-1.31 3.05 3.81 5.38 8.39 5.54 13.35 0.37 10.64-0.53 21.27-0.89 31.93 0.04 2.06 0.03 4.34 1.3 6.09 2.61 1.63 5.8 2.93 8.93 2.33 3.16-3.22 5.41-7.21 8.12-10.79 4.95-7.15 10.48-13.94 14.73-21.54 4.33-7.76 7.72-16.02 12.4-23.59 3.48-5.62 7.22-11.08 10.35-16.91 1.23-4.56 0.66-9.42 1.34-14.04 1.09-7.63 0.76-15.34 0.34-23-1.36-5.89 3.1-10.4 5.2-15.38 3.11-5.39 1.75-11.94 0.6-17.66-3.17-14.8-7.01-29.45-11.42-43.93-1.44-4.71-3.66-9.16-4.91-13.95-2.33-8.96-4.59-17.92-6.75-26.91-0.8-3.65-1.99-7.38-1.09-11.1 2.22-11.41 5.39-22.74 5.12-34.47 1.88-4.49-2.11-6.63-3.5-9.98 6.63-5.61 11.13-13.06 16.89-19.45 8.17-7.24 15.99-14.87 23-23.24 11.24-11.7 21.66-24.15 33.41-35.35 8.71-9.61 18.05-18.63 26.65-28.33 4.91-5.52 10.78-10.09 15.49-15.78 9.31-11.06 19.75-21.09 29.47-31.78 4.9-5.51 10.64-10.21 15.39-15.86 5.48-6.59 11.8-12.37 17.58-18.67 10.52-11.55 22.31-21.95 32.09-34.18 6.75-7.81 14.65-14.523 21.35-22.373 8.82-10.325 19.23-19.125 28.09-29.412 6.16-7.15 13.16-13.537 19.28-20.725 3.85-4.437 7.6-9.112 12.5-12.437 2.03-1.463 4.5-3.014 4.54-5.826 3.35-3.732 1.04-5.325-1.26-5.182zm-256.65 528.22c1.53 3.48 3.06 6.99 4.54 10.52-0.58-3.86-2.31-7.36-4.54-10.52zm363.15-493.52c3.62 0.089 7.05 1.992 10.2 3.727 6.36 3.387 8.73 10.388 12 16.301-1.24 4.037-4.56 7.55-9.03 7.425-4.54-4.337-5.13-11.288-9.25-15.9-4.9-4.775-13.09-1.725-17.94-6.225 3.36-1.712 6.66-3.738 10.34-4.738 1.24-0.447 2.47-0.62 3.68-0.59zm-18.89 18.59c5.47 2.75 8.95 8.124 10.41 13.949-2.91-0.55-6.02-0.937-8.51-2.662-3.11-2.425-3.23-6.875-2.43-10.437l0.53-0.85zm-118.41 44.45c0.63 0.05 1.89 0.13 2.53 0.16-4.12 4.44-8.19 9.07-13 12.75-2.36 1.35-3.76-1.28-4.55-3.08 4.38-4.12 9.28-7.83 15.02-9.83zm580.56 64.94c-0.94-0.01-1.87 0.06-2.75 0.17-0.2 1.39-0.25 2.8-0.16 4.22-0.62 7.58 5.34 13.39 6.17 20.66 0.3 10.42-0.29 20.87 0.65 31.27 0.97 10.12 5.05 19.52 7.05 29.4 2.3 10.75 6.2 21.21 7.1 32.24 0.7 12.66-4.2 24.89-3.5 37.58-0.4 8.02 4.7 14.44 7.6 21.48 8 19.31 19.6 36.93 27.4 56.37 1.9 5.22 2.9 10.76 5.1 15.9 2.1 5.07 5.1 9.71 7.3 14.75-0.3 7.38-2.8 14.43-3.7 21.75 11.5 5.77 25.3 6.22 35.4 14.77 6.9 5.16 13.8 10.24 21 14.99 0.1-9.58 0.1-19.15 0.8-28.7 0.6-7.48 0.4-15.5 4.1-22.3 3.5-7.4 7.4-14.66 10.2-22.39 2-5.64 1.1-11.84 0.4-17.61-1.1-4.41-4-8.08-6.4-11.8-3.8-5.35-6.5-11.49-10.9-16.43-4.8-5.61-10.6-10.27-16-15.26-2.6-1.94-4-5.01-4.6-8.11-1.1-5.51-2-11.12-2.4-16.74 4.9-0.96 7.9 4.53 12.6 4.65 4.6 0.18 9.2-0.59 13.8-1.44 4-1.4 10-2.29 10.9-7.34-4.1-2.78-9.3-3.56-13.1-6.96-5.4-4.59-10-10.51-16.7-13.32-1.3-0.88-3.4-0.96-3.9-2.58 0.2-3.86 1.4-7.67 2.9-11.18 3-3.55 6.5-6.59 9.6-9.97 3.5-3.56 2.3-8.65 2.4-12.96 0.4-4.8-1.6-9.15-4-13.1-9.6 8.86-14.8 22.26-27.1 28.1-6.8 1.44-13.8 1.37-20.6 2.6-0.6-8.08 8.3-10.84 12.5-16.11 4.7-6.58 6-15.12 11-21.58 4.3-2.09 9.6-2.05 13.7-4.82 4.2-2.84 7.6-6.63 11.1-10.28 3.9-3.6 4.8-9.42 3.8-14.4-0.4-2.8-3.5-4.25-6-3.07-3.4 2.64-6.2 5.9-9.7 8.47-7.5 4.33-16.6 4.16-24.6 7.23-7.2 2.75-9.3 10.86-13.7 16.56-3.6 5.3-8.2 13.33-16.1 10.74-0.7-4.34 1.5-8.36 3.5-12.04 6.8-12.17 13.5-25.01 14.9-39.12-0.2-8.59 2.2-18.63-4-25.79-2.3-1.17-4.8-1.89-7.3-2.36-2.5 12.12-2.9 24.88-8.5 36.18-2.9 5.92-5.7 11.9-9.1 17.57-1.3-1.15-1.5-2.99-1.9-4.58-1.6-8.59-2.5-17.28-3.9-25.88-0.9-5.05-4.1-9.23-6.6-13.62-2.7-4.35-4.9-9.09-7.91-13.23-2.11-1.89-5.03-2.56-7.85-2.58zm-855.44 168.22c-2.39 5.69-6.9 10.5-7.38 16.9-1.18 7.54-2.93 15.03-3.41 22.68 1.74 6.15 5.03 12.06 4.4 18.68-1.25 3.68-2.4 7.82-5.35 10.54-0.74 0.03-2.19 0.08-2.91 0.09-3.1-5.79-5.44-11.99-9.16-17.44-3.24-5.37-7.7-9.86-11.14-15.09 5.39-6.62 11.22-12.88 17.46-18.71 5.54-5.32 9.95-11.8 16-16.58 0.38-0.27 1.11-0.8 1.49-1.07zm-32.56 7.8c0.99-0.05 1.65 0.26 0.92 1.85-3.3 3.89-6.822 7.65-10.86 10.78-2.75-2.57-5.65-7.13-2.725-10.76 3.538-0.77 7.163-1.08 10.755-1.59 0.6-0.09 1.31-0.25 1.91-0.28zm644.06 77.4c4.56 1.18 8.89 3.15 13.11 5.23 4.77 2.13 7.12 7.16 10.92 10.49 4.4-0.18 9.08-0.56 12.97 2.03 0.32 3.91-3.05 7.05-2.91 10.98-0.31 3.9 1.12 8.75-2.16 11.89-3.98 3.22-7.33 7.06-10.72 10.85-3.58 0.51-7.46-0.09-10.83 1.48-6.86 3.09-13.95 6.57-21.6 6.7-3.99-0.75-7.88-3.12-9.98-6.65-2.55-5.7-0.7-11.94 0.27-17.75-2.57-5.79-4.61-12.69-1.95-18.77 5.69-4.08 11.49-8.07 17.63-11.44 1.79-1.16 3.08-2.91 4.59-4.39l0.66-0.65z" transform="scale(.8)"/>
<path d="m400.41 268.3c-1.5504-0.009-3.1054 0.0384-4.6641 0.15469-7.14 0.68-14.209 1.7212-21.309 2.6812-1.79 1.95-1.3706 4.7294-0.74064 7.0594 3.88 6.62 8.1594 13.05 13.559 18.55 14.62 14.82 29.93 29.52 39.97 48.02 6.24 11.8 13.46 23.11 18.47 35.52 4.26 10.6 8.2797 21.3 11.93 32.13 6.39 21.49 12.6 43.069 16.85 65.109 6.38 38.91 11.291 78.121 13.011 117.54-0.75 10.37 0.78968 20.77-0.22032 31.13-1.75 16.82-0.55968 33.86-3.4797 50.58-1.02 5.55-2.031 11.29-4.811 16.3-4.29-4.08-7.74-9.0191-12.4-12.689-7.44-5.15-15.39-9.5309-23.52-13.461-5.06-2.55-10.73-3.36-16.1-5-3.57-0.84-7.029-2.17-10.689-2.6-2.31 1.95-4.6406 4.0506-6.1906 6.6906-1.43 1.87 0.24032 4.21 0.82032 6.05 1.54 4.77 5.6797 7.6894 9.3297 10.809 4.89 4.08 10.671 6.86 16.091 10.15 6.74 3.97 12.54 9.2897 19.07 13.58 11.5 7.73 23.529 14.801 33.809 24.181 12.15 10.65 21.57 24.679 25.73 40.369 1.27 2.74 5.09 1.6912 7.7 1.7812 2.36-6.56 2.61-13.671 5-20.231 3.41-9.1 9.08-17.079 13.25-25.819 2.18-4.05 4.0897-9.3103 8.9797-10.77 8.63 7.74 14.601 17.859 20.031 27.989 2.8 4.78 3.6094 10.321 5.5594 15.461 0.57 0.12 1.7003 0.37 2.2703 0.5 3.12-4.04 5.3603-8.7203 6.8703-13.57 2.77-8.4 5.4897-16.83 8.9297-24.98 3.52-8.42 6.13-17.171 9.2-25.741 2.41-6.7 6.8494-13.03 6.0094-20.48-1.27-7.84-2.8097-15.64-3.3297-23.57-0.38-9.78-3.39-19.38-8.25-27.85-2.21-3.84-3.2903-8.2297-3.6203-12.63-0.7-11.08-0.49904-22.271-2.739-33.191-2.45-13.58-0.56096-27.359-0.76096-41.039-0.09-8.89 0.10968-17.8 1.4297-26.6 2.15-13.3 1.72-26.83 1.55-40.25 0.14-8.27-2.129-16.28-3.989-24.25-2.49-9.88-4.4606-20.241-9.9406-29.011-4.48-7.61-10.209-14.349-16.139-20.859-5.02-5.42-8.9113-11.739-13.281-17.659-4.78-6.33-12.539-9.3109-17.719-15.261 2.43-2.96 5.5087-5.3497 7.6687-8.5297 3.41-5.82 6.7-12.41 4.9-19.38-3.89-2.46-8.06-4.4103-12.05-6.6703-2.99-1.68-5.2287-4.3597-8.0687-6.2297-6.08-1.1-11.031 3.4894-14.561 7.8094-0.75 2.47-4.12 3.8409-6.05 2.1109-2.01-1.38-1.98-4.13-1.15-6.25 2.71-5.4 7.411-9.3309 10.961-14.111-4.79-10.85-13.071-19.66-21.131-28.17-1.79-1.69-3.6194-4.1891-6.4094-3.4391-1.11 11.59-3.1806 23.039-4.8906 34.539-2.03-0.38-3.44-1.9788-5-3.1688-5.13-4.51-11.169-7.9409-15.789-13.011-4.81-5.52-9.231-11.38-14.361-16.6-3.91-3.63-8.1094-7.4597-13.509-8.5797-10.579-2.1962-21.233-5.0813-32.086-5.1453zm415.38 93.866c-2.68 4.69-4.721 9.9097-4.911 15.38 5.39 3.97 11.03 7.6306 17.05 10.591 5.59 2.91 11.65 4.7797 17.25 7.6797 8.02 4.13 16.571 7.15 24.491 11.5 7.43 4.33 14.17 9.7591 20.53 15.539 4.35 3.75 10.6 4.7503 15.85 2.4203 2.91-2.63 3.0303-6.8203 3.6203-10.42 0.59-3.4-2.4503-5.8494-4.5703-8.0094-6.45-5.77-13.689-10.54-21.009-15.1-5.75-3.8-11.301-7.8606-16.811-11.991-8.04-6.84-19.139-7.1988-28.309-11.819-7.26-3.36-15.22-5.2903-23.18-5.7703zm-685.69 58.97c-0.55 3.7-0.0897 7.5891-1.0797 11.239-2.5 4.66-5.4897 9.0303-8.2797 13.52-3.74 6.06-6.4503 12.67-9.9203 18.88-3.4 6.08-7.8197 11.51-11.78 17.23-2.17 2.86-3.97 6.0512-6.5 8.6312-2.5 0.48-5.0506-0.56093-7.1406-1.8609-1.02-1.4-1.0106-3.2297-1.0406-4.8797 0.29-8.52 1.011-17.031 0.71096-25.541-0.13-3.97-1.9897-7.6297-4.4297-10.68-0.3 0.26-0.90096 0.79-1.211 1.05-1.66 5.75-2.6303 11.68-4.3203 17.43-1.82 5.96-2.2594 12.191-2.7094 18.381-0.57 13.74-0.68968 27.549 0.52032 41.269 0.43-0.01 1.2903-0.0297 1.7203-0.0297 0.81-2 1.3487-4.0891 2.2687-6.0391 1.17-0.85 3.3413-1.2912 3.9813 0.41876 1.52 2.23 1.759 6.2303 5.989 4.7703 1.33 0.26 2.2297-1.0903 3.1797-1.7703 4.37-4.36 8.151-9.2694 12.261-13.859 10.29-11.72 17.88-25.421 26.88-38.091 4.21-6.39 6.5906-13.709 9.2406-20.809 2.25-6.14 2.0797-12.73 2.5797-19.13 0.08-1.71 1.7294-2.5203 2.8094-3.5703l-0.0203-0.74062c-4.07-2.88-8.7394-5.1588-13.709-5.8188z" fill="#ececec"/>
<path d="m596.21 340.22c-5.2761 7.2119-16.569 8.3943-20.064 16.949-1.3271 6.6569 3.4294 12.937 1.1231 19.527-1.3218 7.2703 3.9122 15.071 11.693 14.955 8.6142 0.32561 15.523-6.6549 24.107-6.3223 5.0926-1.0315 6.896-6.6161 10.94-9.3066 3.4542-2.9116 2.2373-7.4229 2.5-11.244 0.9286-3.5392 4.8885-10.099-0.8164-11.43-3.5044-1.5164-8.8177 0.82784-10.633-3.5195-4.682-5.3071-12.228-9.0786-18.85-9.6094z" fill="#ff2a2a"/>
</svg>
