<?xml version="1.0" encoding="utf-8"?>

<!DOCTYPE svg PUBLIC "-//W3C//DTD SVG 1.1//EN" "http://www.w3.org/Graphics/SVG/1.1/DTD/svg11.dtd">
<svg version="1.1" id="Layer_1" xmlns="http://www.w3.org/2000/svg" xmlns:xlink="http://www.w3.org/1999/xlink" x="0px" y="0px"
	 viewBox="-52 -88.12 1237 2096.24" enable-background="new -52 -88.12 1237 2096.24" xml:space="preserve">
<g>
	<path fill="#FFFFFF" stroke="#FFFFFF" stroke-width="0.0938" d="M522.55,87.022c23.47-11.98,49.31-21.03,75.97-20.46
		c-13.36,13.15-25.21,28.07-33.62,44.89c14.23-8.94,30.5699-13.34,46.17-19.19c10.74-4.04,21.4-9.07,29.79-17.1
		c0.22,22.66,4.19,45.06,9.01,67.14c5.48,25.27,10.84,50.78,10.89,76.76c3.87-4.09,7.69-8.22,11.12-12.69
		c-7.1,18.45-15.68,36.48-27.25,52.58c-19.58,28.04-45.69,50.61-72.32,71.7c-5.68,4.59-14.21,8.46-20.72,3.1
		c-26.94-20.88-49.4-47.61-65.35-77.74c-12.35-23.63-20.4-49.37-24.74-75.65c5.46,2.45,11.71,2.12,17.46,1.05
		c3.67-0.82,7.51-2.03,10.08-4.94c-2.49-1.33-5.32-1.82-8.12-1.76c-6.73,0.14-13.55,1.01-19.8,3.61
		c-2.58-18.63-3.76-37.43-3.62-56.24C479.89,111.732,500.59,98.192,522.55,87.022 M486.17,140.132
		c3.69,12.14,8.95,23.82,11.26,36.36c1.1,6.7,3.08,13.52,1.89,20.34c-2.46,11.97-7.7,23.14-10.65,34.97
		c-0.81,3.68-1.24,8.17,1.75,11.03c3.84,4.33,10.32,4.35,15.47,2.77c8.81-2.8,16.49-8.22,23.68-13.88
		c5.58-4.66,11.19-9.47,15.44-15.41c-11.85,7.61-23.05,16.53-36.21,21.86c-3.42,1.26-7.09,2.48-10.77,1.82
		c-2.06-0.39-3.96-2.54-3.1-4.7c3.03-13.17,9.15-25.51,11.14-38.95c0.75-4.74-0.48-9.48-1.38-14.11
		C501.38,167.192,495.33,152.562,486.17,140.132 M582.64,158.822c-12.38,6.46-26.44,7.78-39.67,11.52c0.28,1.84,2.67,1.47,3.98,2.04
		c12.97,2.11,26.98-0.51,37.71-8.3c3.6201-2.65,7.13-5.91,8.54-10.31C589.54,155.172,586.12,157.072,582.64,158.822 M576.44,239.802
		c-8.56,5.54-16.23,12.35-23.46,19.5c-3.07,3.17-6.28,6.44-7.88,10.63c4.76,0.81,9.56-0.32,13.94-2.19
		c11.44-4.8,20.92-13.23,29.16-22.34c3.2-3.75,6.57-7.69,7.79-12.59C588.8,232.522,582.33,236.122,576.44,239.802z"/>
	<path stroke="#000000" stroke-width="0.0938" d="M486.17,140.132c9.16,12.43,15.21,27.06,18.52,42.1c0.9,4.63,2.13,9.37,1.38,14.11
		c-1.99,13.44-8.11,25.78-11.14,38.95c-0.86,2.16,1.04,4.31,3.1,4.7c3.68,0.66,7.35-0.56,10.77-1.82
		c13.16-5.33,24.36-14.25,36.21-21.86c-4.25,5.94-9.86,10.75-15.44,15.41c-7.19,5.66-14.87,11.08-23.68,13.88
		c-5.15,1.58-11.63,1.56-15.47-2.77c-2.99-2.86-2.56-7.35-1.75-11.03c2.95-11.83,8.19-23,10.65-34.97
		c1.19-6.82-0.79-13.64-1.89-20.34C495.12,163.952,489.86,152.272,486.17,140.132z"/>
	<path stroke="#000000" stroke-width="0.0938" d="M582.64,158.822c3.48-1.75,6.9-3.65,10.56-5.05c-1.41,4.4-4.92,7.66-8.54,10.31
		c-10.73,7.79-24.74,10.41-37.71,8.3c-1.31-0.57-3.7-0.2-3.98-2.04C556.2,166.602,570.26,165.282,582.64,158.822z"/>
	<path stroke="#000000" stroke-width="0.0938" d="M576.44,239.802c5.89-3.68,12.36-7.28,19.55-6.99c-1.22,4.9-4.59,8.84-7.79,12.59
		c-8.24,9.11-17.72,17.54-29.16,22.34c-4.38,1.87-9.18,3-13.94,2.19c1.6-4.19,4.81-7.46,7.88-10.63
		C560.21,252.152,567.88,245.342,576.44,239.802z"/>
	<path stroke="#000000" stroke-width="0.0938" d="M278.96,335.812c7.39-1.4,14.92-2.45,22.46-1.99c8.5,7.85,16.54,16.23,25.67,23.37
		c20.72,16.77,42.86,32.43,59.4,53.62c21.39,27.54,36.47,59.47,47.7,92.35c9.09,26.64,15.84,54.05,20.78,81.76
		c6.73,35.95,10.57,72.4,12.92,108.8799c-3.64-0.65-7.22-1.6-10.77-2.6299c-2.77-47.63-7.84-95.28-18.27-141.9
		c-9.17-39.92-22.05-79.41-42.83-114.91c-8.02-13.27-16.86-26.16-27.72-37.28c-14.39-14.7-30.57-27.48-45.79-41.28
		c-7.21-6.45-13.46-13.86-20.27-20.71c-1.83-2.09-4.9-0.88-7.28-0.87c-39.91,5.23-74.96,28.3-114.94,33.2
		c-42.43,4.34-83.77-9.07-125.8-11.98c-13.54-1.4-27.13-0.34-40.59,1.24c6.78,5.53,14.09,10.51,19.93,17.1
		c22.13,23.3,36.61,52.63,47.85,82.43c15.62,41.96,24.34,86,36.29,129.05c2.34,8.59,4.9,17.13,7.2,25.73
		c-4.33-0.74-8.74-1.0099-13.13-0.74c-10.13-35.75-17.92-72.09-27.56-107.95c-7.93-28.55-16.95-57.05-30.98-83.26
		c-12.83-24.12-30.32-46.27-53.23-61.53v-0.69c0.55-2.56,1.16-5.11,1.7-7.67c18.39-3.59,37.28-3.6,55.85-1.66
		c37.67,3.6,74.36,15.42,112.42,15.1c17.02-0.01,33.61-4.4,49.75-9.4C239.37,347.102,258.74,339.862,278.96,335.812z"/>
	<path fill="#FFFFFF" stroke="#FFFFFF" stroke-width="0.0938" d="M180.02,367.422c39.98-4.9,75.03-27.97,114.94-33.2
		c2.38-0.01,5.45-1.22,7.28,0.87c6.81,6.85,13.06,14.26,20.27,20.71c15.22,13.8,31.4,26.58,45.79,41.28
		c10.86,11.12,19.7,24.01,27.72,37.28c20.78,35.5,33.66,74.99,42.83,114.91c10.43,46.62,15.5,94.27,18.27,141.9
		c-17.94-5.11-35.26-13.1-54.03-14.7c-3.12-0.16-7.06,0.13-8.83,3.13c-2.98,5.31-1.01,11.6,0.5,17.05
		c5.15,14.14,12.25,28.06,23.36,38.47c11.25,11.07,25.75,18.58,41.06,22.2c0.38,25.66-0.19,51.32-0.65,76.98
		c1.46,14.73,4.66,29.2401,6.78,43.89c2.07,14.42,4.79,28.94,4.15,43.56c-11.49,0.02-22.98-0.61-34.47-0.77
		c-9.74-0.46-19.38,1.33-29.07,1.91c-67.86,5.77-135.97,7.87-203.87,13.06c-17.7,2.22-34.34,9.58-52.09,11.58
		c-4.32,0.31-9.34,0.73-12.93-2.18c-2.75-3.27-2.37-7.92-1.78-11.87c6.94-43.06,11.85-86.53,12.92-130.16
		c0.58-32.33-0.9-64.7-4.69-96.8c7.37,0.08,15.23-0.23,21.8-3.95c2.98-1.51,4.56-4.73,5.01-7.92c2.59-19.44-0.37-40.09-10.55-57.07
		c-7.59-12.93-19.95-23.42-34.84-26.59c-2.3-8.6-4.86-17.14-7.2-25.73c-11.95-43.05-20.67-87.09-36.29-129.05
		c-11.24-29.8-25.72-59.13-47.85-82.43c-5.84-6.59-13.15-11.57-19.93-17.1c13.46-1.58,27.05-2.64,40.59-1.24
		C96.25,358.352,137.59,371.762,180.02,367.422 M225,399.462c-19.04,3.94-38.52,5.66-57.96,5.65c-25.59,0.19-51.25-2.42-76.15-8.38
		c-1.13,4.96-2.57,9.84-3.6,14.83c14.39,3.48,29.04,5.86,43.78,7.22c33.5,2.98,67.59,2.15,100.52-5.1
		c25.07-5.67,50.36-15.3,68.96-33.66c-3.51-3.59-7-7.2-10.55-10.75C272.19,385.972,248.53,394.562,225,399.462 M329.27,429.192
		c-12.83,17.23-31.81,28.86-51.63,36.47c-29.4,11.07-61.38,14.3-92.59,11.85c-28.23-2.48-56.62-9.61-80.92-24.62
		c-2.67,4.31-5.33,8.62-8.05,12.9c17.63,11.21,37.68,18.14,58.01,22.53c27.21,5.74,55.39,6.78,82.96,3.13
		c22.73-3.11,45.25-9.37,65.49-20.35c15.12-8.14,28.83-19.16,39.22-32.91C337.59,435.212,333.79,431.622,329.27,429.192
		 M330.12,521.382c-19.06,12.14-40.8,19.74-63.01,23.6c-43.99,7.4-90.39,2.36-131.13-16.11c5.19,3.34,10.96,5.66,16.6,8.13
		c21.1,8.67,43.7,13.48,66.43,14.97c26.62,1.75,53.65-0.99,79.07-9.24c27.45-8.91,53.13-25.08,70.43-48.48
		c4.06,6.91,7.97,13.95,10.79,21.47c15.69,39.15,19.91,81.46,29.69,122.2c-34.44,10.85-69.97,18.46-105.91,22.02
		c-30.07,3.14-60.54,3.81-90.53-0.34c-7.65-1.79-13.45-7.65-18.54-13.29c-10.79-12.85-18.81-27.74-26.21-42.72
		c-7.81-16.39-14.79-33.18-21.01-50.23c0.18,3.06-1.42,6-0.73,9.03c0.05-0.98,0.16-2.94,0.22-3.92l1.55,0.16
		c3.73,12.72,8.32,25.18,13.38,37.43c7.13,16.74,14.79,33.48,25.54,48.25c6.68,8.82,14.69,18.2,26.06,20.54
		c24.17,3.76,48.75,3.84,73.13,2.72c44.58-2.74,88.92-10.96,131.3-25.14c-8.32-33.14-12.76-67.14-21.8-100.1
		c-5.81-21.16-14.06-41.85-26.58-59.98C358.92,497.942,345.73,511.442,330.12,521.382 M280.12,780.762
		c-0.19,2.58-0.15,5.18-0.09,7.79c43.85,0,88.68-0.91,130.66-15.04c-1.03-2.29-1.19-5.23-2.73-7.15
		C366.83,779.912,323.02,780.972,280.12,780.762 M198.97,769.922c16.04,5.89,33.56,1.3199,49.95,5.24c4.63,0.95,9.52,4.03,10.2,9.09
		c3.34,22.18,7.78,44.17,11.56,66.27c2.74,16.67,6.48,33.3,6.82,50.24c-1.28,0.72-2.63,1.33-4.07,1.7
		c-14.89,3.8-30.48,3.3-45.43,6.85c-10.73,2.31-21.32,5.24-32.1,7.31c-7.34,1.37-14.78,2.81-22.27,2.08
		c-2.22-3.68-2.45-8.07-2.97-12.23c-1.42-14.71-1.04-29.52-0.57-44.26c0.61-24.28,2.25-48.51,2.86-72.79
		c0.08-3.91,0.49-7.97-0.1-11.8c-1.84,16.88-3.94,33.75-5.36,50.69c-2.1,25.28-4.34,50.66-3.17,76.06
		c0.58,5.98,0.73,12.41,3.81,17.75c2.53,4,7.81,3.12,11.86,3.26c21.39-1.18,41.73-8.82,62.89-11.57
		c10.06-0.99,20.17-1.93,30.05-4.14c3.32-0.85,6.87-1.65,9.54-3.94c2.15-2.2,1.84-5.59,1.8-8.41c-1.04-16.13-4.31-32-7.36-47.84
		c-3.8-20.13-8.23-40.13-12.21-60.23c-0.85-3.82-0.97-8.03-3.36-11.3c-3.17-4.18-8.33-6.23-13.38-6.98
		C231.69,768.772,215.17,773.102,198.97,769.922 M375.44,817.562c-25.46,3.77-51.26,3.95-76.95,4.07c0.03,2.52,0.02,5.04-0.04,7.57
		c25.58,0.22,51.27-0.26,76.64-3.81c21.41-2.99,42.41-9.07,61.86-18.56c-0.87-2.52-2.12-4.88-3.52-7.12
		C415.37,809.072,395.48,814.482,375.44,817.562 M425.93,852.172c-17.09,7.45-35.37,11.91-53.82,14.3799
		c-24.08,3.14-48.41,3.44-72.66,3.4301c-0.02,2.5699-0.02,5.13-0.02,7.71c26.55-0.02,53.23-0.32,79.54-4.34
		c20.42-3.16,40.51-8.98,59.02-18.26c-1.01-2.29-2.14-4.52-3.21-6.77C431.69,849.272,428.92,850.982,425.93,852.172z"/>
	<path stroke="#000000" stroke-width="0.0938" d="M225,399.462c23.53-4.9,47.19-13.49,65-30.19c3.55,3.55,7.04,7.16,10.55,10.75
		c-18.6,18.36-43.89,27.99-68.96,33.66c-32.93,7.25-67.02,8.08-100.52,5.1c-14.74-1.36-29.39-3.74-43.78-7.22
		c1.03-4.99,2.47-9.87,3.6-14.83c24.9,5.96,50.56,8.57,76.15,8.38C186.48,405.122,205.96,403.402,225,399.462z"/>
	<path stroke="#000000" stroke-width="0.0938" d="M329.27,429.192c4.52,2.43,8.32,6.02,12.49,9c-10.39,13.75-24.1,24.77-39.22,32.91
		c-20.24,10.98-42.76,17.24-65.49,20.35c-27.57,3.65-55.75,2.61-82.96-3.13c-20.33-4.39-40.38-11.32-58.01-22.53
		c2.72-4.28,5.38-8.59,8.05-12.9c24.3,15.01,52.69,22.14,80.92,24.62c31.21,2.45,63.19-0.78,92.59-11.85
		C297.46,458.052,316.44,446.422,329.27,429.192z"/>
	<path stroke="#000000" stroke-width="0.0938" d="M330.12,521.382c15.61-9.94,28.8-23.44,38.74-39.03
		c12.52,18.13,20.77,38.82,26.58,59.98c9.04,32.96,13.48,66.96,21.8,100.1c-42.38,14.1801-86.72,22.4-131.3,25.14
		c-24.38,1.12-48.96,1.04-73.13-2.72c-11.37-2.34-19.38-11.72-26.06-20.54c-10.75-14.77-18.41-31.51-25.54-48.25
		c-5.06-12.25-9.65-24.71-13.38-37.43l-1.55-0.16c-0.06,0.98-0.17,2.94-0.22,3.92c-0.69-3.03,0.91-5.97,0.73-9.03
		c6.22,17.05,13.2,33.84,21.01,50.23c7.4,14.98,15.42,29.87,26.21,42.72c5.09,5.64,10.89,11.5,18.54,13.29
		c29.99,4.15,60.46,3.48,90.53,0.34c35.94-3.56,71.47-11.17,105.91-22.02c-9.78-40.7401-14-83.05-29.69-122.2
		c-2.82-7.52-6.73-14.56-10.79-21.47c-17.3,23.4-42.98,39.57-70.43,48.48c-25.42,8.25-52.45,10.99-79.07,9.24
		c-22.73-1.49-45.33-6.3-66.43-14.97c-5.64-2.47-11.41-4.79-16.6-8.13c40.74,18.47,87.14,23.51,131.13,16.11
		C289.32,541.1219,311.06,533.522,330.12,521.382z"/>
	<path d="M851.2938,966.8381c1.09-7.18,1-14.56-0.82-21.61c-3.52-14.33-12-26.6299-18.69-39.5699
		c-6.4-12.22-11.6299-25.78-10.3-39.83c0.56,5.61,1.3,11.25,3.26,16.57c6.74,19.47,21.45,34.76,29.46,53.61
		c4.45,10.09,6.21,21.37,4.82,32.32c-0.84,5.55-5.7,9.34-10.55,11.46c-8.3199,3.54-17.33,4.89-26.21,6.2
		c-2.3,57.0801-4.57,114.1801-5.51,171.3c-0.64,49.33-0.6,98.72,2.66,147.98c1.9301,27.11,4.53,54.27,10.19,80.9
		c3.25,15.0599,7.5,30.0699,14.75,43.75c28.9901,58.3199,56.33,117.4399,84.98,175.9199
		c34.99,71.6001,72.16,142.3401,116.04,208.9601c-33.2401,0.0699-66.3801,3.47-99.2601,8.1599c-19.65,2.4501-39.22,6.89-59.13,6
		c-9.77-0.51-19.75-2.38-28.26-7.4199c-7.91-4.5901-13.9-11.9501-17.83-20.11c-8.51-17.91-10.92-37.86-15.02-57.0601
		c-3.41-17.98-8.3-35.62-13.5-53.15c-31.48-108.34-65.58-216-91.38-325.8999c-21.73-93.1801-38.36-188.2401-38.52-284.1901
		c-33.36,21.98-62.0099,50.6-86.28,82.22c-23.13,30.26-42.29,63.4401-58.19,98.01c-17.91,39-31.75,79.79-42.36,121.34
		c-24.11,95.3201-32.13,194.5-25.92,292.54c3.32,49.1,10.26,98.04,22.18,145.8101c-9.7-3.0701-19.8-4.62-29.89-5.74
		c-46.54-4.64-93.44-1.77-140-5.9c-12.61-1.37-25.53-2.72-37.27-7.8301c-5.11-2.2799-10.52-6.1699-11.29-12.1399
		c-0.83-6.2201,2.97-11.6001,5.85-16.7401c39.23-70.2699,69.53-145.1299,96.1-220.98c29.1-83.64,53.34-168.88,75.38-254.63
		c24.2-94.4199,45.57-189.5399,66.48-284.7499c-8.25,0.87-17.25,2.64-25.01-1.26c-3.7-1.73-5.73-5.77-5.54-9.76
		c0.35-9.71,4.37-18.73,7.05-27.93c5.61-22.08,15.4-42.88,20.42-65.13c2.01-8.49,2.4-17.24,3.25-25.89
		c3.79-43.49,4.35-87.2,3.37-130.82c3.17-1.49,6.3-3.04,9.43-4.59l1.04-0.2c1.2,33.35,2.25,66.76,0.93,100.13
		c-0.32,16.16-1.48,32.3-2.79,48.41c-1.54,18.8-7.81,36.74-14,54.42c-3.31,9.81-6.56,19.64-9.16,29.67
		c-2.13,6.7-4.61,13.32-5.75,20.29c6.71,0.38,13.37-0.77,19.95-1.96c1.1-4.54,2.03-9.12,3.05-13.67c0.2-0.23,0.61-0.69,0.81-0.92
		c16.89,0.55,33.74-1.63,50.63-0.71c54.08,0.39,108.03,4.4,162.09,5.6c6.71,0.02,13.51,0.7,20.16-0.62
		c12.04-1.84,24.06-3.88,35.92-6.67c10.73-2.72,21.83-3.1,32.79-4.28c6.91-1.02,13.94-2.07,20.42-4.8
		C848.3939,970.6381,850.8538,969.3381,851.2938,966.8381z"/>
	<path fill="#FFFFFF" d="M708.5438,438.028c-1.66,1.28-3.12,2.83-4.3,4.58c-10.15,14.21-18.28,29.74-27.09,44.79
		c-11.53,19.92-23.08,39.87-36.22,58.78c-3.77,5.69-8.2,10.9-11.94,16.59c-9.56,7.3-20.45,12.77-31.54,17.35
		c-5.84-19.41-8.36-39.62-11.13-59.65c-2.63-19.38-3.66-39.01-7.35-58.23c-2.04,10.55-2.43,21.34-2.73,32.07
		c-0.41,32.06,1.11,64.59,10.03,95.57c-8.45-3.13-13.23-11.46-16.51-19.35c-5.34-13.14-7.77-27.22-9.75-41.2
		c-3.59-22.02,1.21-44.11,4.83-65.78c0.25-1.95,0.9-3.98,0.18-5.9c2.17-2.17,4.06-4.59,5.75-7.14l11-2.6
		c5.65-2.57,10.53-6.54,14.97-10.82c14.07-13.81,23.64-32.13,26.81-51.6c3.04-18.55,0.35-38-7.75-54.97
		c-2.23-4.69-5.09-9.09-8.57-12.94c0-0.01,0-0.01-0.01-0.02c11.4901-10.69,22.04-22.36,31.82-34.63
		c-3.65,25.21-4.76,50.94-1.53,76.26c2.64,19.08,7.77,38.51,19.47,54.17c11.64,15.74,31.61,26.03,51.37,23.26L708.5438,438.028z"/>
	<path fill="#FEFEFF" d="M894.3538,629.678c4.38,17.52,5.62,35.86,3.15,53.77c-4.44,32.37-14.32,64.5-32.43,91.92
		c-10.78,15.96-24.37,30.17-40.52,40.74c10.8-17.88,24.77-33.54,36.48-50.8c11.83-17.06,20.67-36.44,23.98-57.03
		c4.56-30.02,6.52-61.01-0.14-90.88c-4.28-19.6-12.84-38.1-24.14-54.62c-2.16-3.3-4.77-6.29-6.57-9.8
		C872.3339,575.5981,887.0939,601.428,894.3538,629.678z"/>
	<path fill="#000001" d="M667.0638,727.048c19.21,6.88,37.55,16.04,57.05,22.13c9.68,3.02,19.72,5.35,29.92,5.06
		c10.71,0.27,21.6801-3.96,28.82-12.07c2.43-3.65,3.5-8,4.65-12.17c3.55-14.99,5.02-30.38,6.4-45.69
		c2.7-27.78,3.64-55.76,8.0099-83.36c0.8-4.62,1.75-9.25,3.51-13.61c0.46,14.64,1.4,29.27,1.4,43.93
		c1.05,18.67,0.04,37.37-0.46,56.05c-0.94,14.36-1.93,28.79-4.86,42.91c-1.7,7.39-3.62,15.1201-8.41,21.2
		c-7.9,8.64-19,14.29-30.65,15.48c-15.19,1.93-30.36-2.1801-44.37-7.7401c-23.15-9.35-44.21-22.95-65.53-35.74
		C657.5538,723.7781,662.3138,725.5181,667.0638,727.048z"/>
	<path fill="#4681C3" d="M754.0338,754.238c-10.2,0.29-20.24-2.04-29.92-5.06c-19.5-6.09-37.84-15.25-57.05-22.13
		c-4.75-1.53-9.51-3.27-14.52-3.62c21.32,12.79,42.38,26.39,65.53,35.74c14.01,5.56,29.18,9.67,44.37,7.7401
		c11.65-1.19,22.75-6.84,30.65-15.48c4.79-6.08,6.71-13.81,8.41-21.2c2.93-14.12,3.92-28.55,4.86-42.91
		c0.5-18.68,1.51-37.38,0.46-56.05c0-14.66-0.94-29.29-1.4-43.93c-1.76,4.36-2.71,8.99-3.51,13.61
		c-4.37,27.6-5.31,55.58-8.0099,83.36c-1.38,15.31-2.85,30.7-6.4,45.69c-1.15,4.17-2.22,8.52-4.65,12.17
		C775.7139,750.2781,764.7438,754.5081,754.0338,754.238z M705.9238,448.1381c-3.11,14.82-6.9,29.63-13.75,43.22
		c-8.82,18.42-21.29,34.96-35.88,49.2c-8.42,8.18-17.35,15.95-27.3,22.21c3.74-5.69,8.17-10.9,11.94-16.59
		c13.14-18.91,24.69-38.86,36.22-58.78c8.81-15.05,16.94-30.58,27.09-44.79c1.18-1.75,2.64-3.3,4.3-4.58
		c3.52-2.73,7.93-4.26,12.45-3.89c11.09,0.95,20.77,7.18,29.66,13.41c14.08,10.49,26.97,22.59,38.79,35.56
		c-19.9-12.06-40.41-23.62-62.66-30.73c31.33,16.93,61.54,36.32,88.22,60.03c13.91,12.6299,27.69,25.6299,39.16,40.5699
		c1.8,3.51,4.41,6.5,6.57,9.8c11.3,16.52,19.86,35.02,24.14,54.62c6.66,29.87,4.7,60.86,0.14,90.88
		c-3.31,20.59-12.15,39.97-23.98,57.03c-11.71,17.26-25.68,32.92-36.48,50.8c-23.43,15.36-51.57,23.04-79.51,22.85
		c-25.36,0.22-50.54-5.25-74.1-14.42c-31.43-12.18-60.08-30.71-85.87-52.28c-1.68-1.39-3.34-2.83-5.26-3.88l-1.02-1.15
		c8.58-7.53,15.9-16.48,22.27-25.95c3.53-5.4901,6.98-11.37,7.66-17.9901c-7.18,1.58-12.6,7.02-17.87,11.79
		c-1.54-4.28-5.17-7.26-8.47-10.17c-13.06-10.56-27.94-18.58-42.86-26.1201c-3.83-4.73-7.45-9.66-11.82-13.93
		c-0.51-10.3-1.18-20.58-2.1-30.84c1.04-8.88,1.37-17.84,2.66-26.69c1.52-10.15,2.43-20.94-1.45-30.69
		c-1.07-3.09-3.32-5.5-4.86-8.31c-0.1-3.37-0.29-6.73-0.9-10.04c-0.75-5.37-0.38-10.85-1.63-16.15c0.13,5.67-0.01,11.36-0.58,17.02
		c-0.23,2.08-0.4,4.17-0.54,6.27c-8.99-5.64-19.98-6.69-30.34-5.93c-11.15,0.64-22.16,2.81-32.99,5.42
		c-4.94-27.71-11.69-55.12-20.78-81.76c3.92-0.71,7.58-2.29,11.37-3.46c15.76-5.1,31.62-9.9,47.55-14.45
		c-6.63,3.35-13.24,6.75-19.61,10.59c-2.5,1.58-5.25,3.09-6.76,5.76c7.3,0.58,14.53-0.97,21.59-2.66
		c17.17-4.37,33.6-11.41,48.85-20.39c9.98-5.95,19.65-12.6,27.84-20.9c0.72,1.92,0.07,3.95-0.18,5.9
		c-3.6201,21.67-8.42,43.76-4.83,65.78c1.98,13.98,4.41,28.06,9.75,41.2c3.28,7.89,8.06,16.22,16.51,19.35
		c1.93,2.94,5.84,3.81,8.9,5.25c8.81-2.26,17.09-6.39,25.14-10.56c30.53-16.78,56.48-42.28,72.71-73.19
		C702.9738,492.0781,709.2838,469.928,705.9238,448.1381z"/>
	<path d="M590.5739,431.8481c5.96-10.08,11.44-20.53,15.12-31.68c5.9-17.19,7.26-35.76,5.12-53.76c-1.03-9.59-3.12-19.06-3.74-28.69
		l0.16-0.14c3.48,3.85,6.34,8.25,8.57,12.94c8.1,16.97,10.79,36.42,7.75,54.97c-3.17,19.47-12.74,37.79-26.81,51.6
		c-4.44,4.28-9.32,8.25-14.97,10.82C584.0239,442.2081,587.5739,437.1581,590.5739,431.8481z"/>
	<path d="M774.9838,848.538c-29.47,4.8-59.89,1.07-88.1-8.3c-27.55-9.27-53.29-23.69-75.91-41.91
		c-11.14-9.14-21.93-18.84-31.16-29.95c1.92,1.05,3.58,2.49,5.26,3.88c25.79,21.57,54.44,40.1,85.87,52.28
		c23.56,9.17,48.74,14.64,74.1,14.42c27.94,0.19,56.08-7.49,79.51-22.85c16.15-10.57,29.74-24.78,40.52-40.74
		c18.11-27.42,27.99-59.55,32.43-91.92c2.47-17.91,1.23-36.25-3.15-53.77c-7.2599-28.25-22.02-54.08-40.19-76.7
		c-11.47-14.94-25.25-27.94-39.16-40.5699c-26.68-23.71-56.89-43.1-88.22-60.03c22.25,7.11,42.76,18.67,62.66,30.73
		c8.58,5.97,17.36,11.67,25.61,18.13c21.58,16.51,41.14,35.74,57.63,57.36c19.98,26.37,34.58,57.49,38.41,90.5699
		c2.96,24.17-1.2,48.51-7.28,71.87c-8.17,31.48-23.39,61.55-46.13,85.01c-12.6,12.72-27.39,23.29-43.64,30.83
		C801.5739,842.368,788.4639,846.478,774.9838,848.538z"/>
	<path d="M692.1738,491.3581c6.85-13.59,10.64-28.4,13.75-43.22c3.36,21.79-2.95,43.94-12.9,63.24
		c-16.23,30.91-42.18,56.41-72.71,73.19c-8.05,4.17-16.33,8.3-25.14,10.56c-3.06-1.44-6.97-2.31-8.9-5.25
		c-8.92-30.98-10.44-63.51-10.03-95.57c0.3-10.73,0.69-21.52,2.73-32.07c3.69,19.22,4.72,38.85,7.35,58.23
		c2.77,20.03,5.29,40.24,11.13,59.65c11.09-4.58,21.98-10.05,31.54-17.35c9.95-6.26,18.88-14.03,27.3-22.21
		C670.8839,526.3181,683.3538,509.778,692.1738,491.3581z"/>
	<path fill="#4681C3" d="M686.8839,840.238c28.21,9.37,58.63,13.1,88.1,8.3c13.48-2.06,26.59-6.17,39.06-11.66
		c-0.88,4.83-2.19,9.6-2.44,14.53c-1.02,14.91,2.34,29.71,6.83,43.83c1.65,5.49,3.45,10.94,5.54,16.29
		c4.82,15.23,11.82,30.46,10.84,46.8c-0.2,7-3.82,13.46-8.91,18.12c-10.96,1.18-22.06,1.56-32.79,4.28
		c-11.86,2.79-23.88,4.83-35.92,6.67c-6.65,1.32-13.45,0.64-20.16,0.62c-54.06-1.2-108.0099-5.21-162.09-5.6
		c-16.89-0.92-33.74,1.26-50.63,0.71c-0.2,0.23-0.61,0.69-0.81,0.92l-0.36-0.94c-5.77-0.42-11.66-1.06-16.89-3.72
		c2.6-10.03,5.85-19.86,9.16-29.67c3.42-5.78,6.2-11.9,9.04-17.97c1.77-4.02,3.76-8.05,4.37-12.44c2.53-18.56,3.63-37.28,3.85-56
		c0.03-5.48,0.16-10.97-0.47-16.42c1.32-33.37,0.27-66.78-0.93-100.13l-1.04,0.2c7.39-3.73,14.18-9.41,22.71-10.2
		c6.61-0.76,12.75,2.16,18.9,4.08c3.8,1.25,7.84,1.31,11.8,1.28c-6.89,7.82-13.68,15.8-19.2,24.68c-2.16,3.63-4.32,7.38-4.93,11.64
		c4.51-0.42,8.45-2.89,12.08-5.43c2.49-1.81,4.89-3.73,7.2-5.78l1.02,1.15c9.23,11.11,20.02,20.81,31.16,29.95
		C633.5939,816.548,659.3339,830.9681,686.8839,840.238z"/>
	<path fill="#FEFEFF" d="M526.8138,596.6381c3.88,9.75,2.97,20.54,1.45,30.69c-1.29,8.85-1.62,17.81-2.66,26.69
		c-1.35-25.24-3.39-50.48-4.55-75.73c0.61,3.3101,0.8,6.67,0.9,10.04C523.4938,591.1381,525.7438,593.548,526.8138,596.6381z"/>
	<path d="M525.6038,654.0181c0.92,10.26,1.59,20.54,2.1,30.84c-2.76-2.83-5.63-5.54-8.6-8.13c-0.62-32.52-1.3-65.06-0.2599-97.5699
		c0.5699-5.66,0.71-11.35,0.58-17.02c1.25,5.3,0.88,10.78,1.63,16.15C522.2139,603.538,524.2538,628.7781,525.6038,654.0181z"/>
	<path d="M565.0239,457.648c-8.19,8.3-17.86,14.95-27.84,20.9c-15.25,8.98-31.68,16.02-48.85,20.39
		c-7.06,1.69-14.29,3.24-21.59,2.66c1.51-2.67,4.26-4.18,6.76-5.76c6.37-3.84,12.98-7.24,19.61-10.59
		c19.36-9.11,38.41-18.88,57.84-27.85c6.39-2.85,12.82-5.93,19.82-6.89C569.0839,453.058,567.1938,455.4781,565.0239,457.648z"/>
	<path d="M572.3138,330.648c26.63-21.09,52.74-43.66,72.32-71.7c11.57-16.1,20.15-34.13,27.25-52.58
		c-3.43,4.47-7.25,8.6-11.12,12.69c-0.05-25.98-5.41-51.49-10.89-76.76c-4.82-22.08-8.79-44.48-9.01-67.14
		c-8.39,8.03-19.05,13.06-29.79,17.1c-15.6,5.85-31.94,10.25-46.17,19.19c8.41-16.82,20.2599-31.74,33.62-44.89
		c-26.66-0.57-52.5,8.48-75.97,20.46c-21.96,11.17-42.66,24.71-65.05,35.06c-0.14,18.81,1.04,37.61,3.62,56.24
		c6.25-2.6,13.07-3.47,19.8-3.61c2.8-0.06,5.63,0.43,8.12,1.76c-2.57,2.91-6.41,4.12-10.08,4.94c-5.75,1.07-12,1.4-17.46-1.05
		c4.34,26.28,12.39,52.02,24.74,75.65c15.95,30.13,38.41,56.86,65.35,77.74C558.1038,339.1081,566.6339,335.2381,572.3138,330.648z
		 M692.0939,81.2381c13.58,38.87,8.04,83.99-15.17,118.09c-1.03,1.61-2.43,3.1-2.74,5.06c-4.67,26.83-15.8,52.5-32.13,74.3
		c3.06,15.2,3.72,30.73,5.19,46.13c2.07,22.38,4.12,45.18,12.19,66.34c5.03,13.5,13.58,26.06,25.82,33.95
		c7.2,5.1,15.63,7.86,23.6,11.44c-0.17,0.03-0.33,0.05-0.5,0.07c-19.7599,2.77-39.73-7.52-51.37-23.26
		c-11.7-15.66-16.83-35.09-19.47-54.17c-3.23-25.32-2.12-51.05,1.53-76.26c-9.78,12.27-20.33,23.94-31.82,34.63
		c0.01,0.01,0.01,0.01,0.01,0.02l-0.16,0.14c-8.09,7.49-16.31,14.85-24.84,21.83c-5.89,4.79-12.56,9.31-20.3,10.15
		c-7.21,0.96-14.49-1.76-20.13-6.17c-13.96-10.92-26.78-23.32-38.04-37.01c-24.16-28.96-40.82-64.06-48.19-101.04
		c-5.39-26.77-5.9-54.38-2.62-81.46c-4.31,1.74-8.6,3.52-13.07,4.77c0.37-1.67,0.83-3.34,1.81-4.76
		c4.32-6.88,9.37-13.27,14.41-19.63c0.94-1.11,1.23-2.55,1.66-3.9c0.2,0.34,0.58,1.02,0.77,1.37c6.65-9.22,13.99-18.01,22.15-25.93
		c6.08-5.66,13.12-10.81,21.48-12.29c-24.06,0.51-46.47,11.4-65.65,25.25c-16.71,11.65-31.79,25.57-48.99,36.51
		c22.04-29.97,49.51-55.25,75.63-81.54c-24.73,4.62-46.65,17.63-70.37,25.34c8.46-8.33,17.07-16.53,26.27-24.05
		c20.31-16.89,43.56-30.77,69.17-37.82c15.61-4.49,31.84-6.32,48.03-7.01h17.48c6.78,0.31,13.56,0.6,20.33,1.2
		c18.37,1.63,37.21,2.89,54.36,10.28C658.6539,23.9781,681.7739,50.6081,692.0939,81.2381z"/>
	<path fill="#FED9BC" stroke="#FED9BC" stroke-width="0.0938" d="M96.8,614.212c4.65-2.31,9.86-3.26,14.97-3.96
		c4.39-0.27,8.8,0,13.13,0.74c14.89,3.17,27.25,13.66,34.84,26.59c10.18,16.98,13.14,37.63,10.55,57.07
		c-0.45,3.19-2.03,6.41-5.01,7.92c-6.57,3.72-14.43,4.03-21.8,3.95c-4.45-0.34-8.91-0.73-13.32-1.49
		c-7.34-1.22-14.58-3.28-21.31-6.49c-3.45-1.69-6.94-3.81-8.92-7.22c-2.93-4.92-4.86-10.39-5.89-16.01
		c-3.61-18.91-0.46-38.17,1.83-57.02C96.16,616.942,95.94,615.352,96.8,614.212z"/>
	<path fill="#FED9BC" stroke="#FED9BC" stroke-width="0.0938" d="M472.45,663.9319c-0.7-1.64,1.4-2.31,2.59-2.55
		c6.86-1.3,14.05-0.65,20.69,1.45c8.5,3.28,16.44,7.96,23.37,13.9c2.97,2.59,5.84,5.3,8.6,8.13c4.37,4.27,7.99,9.2,11.82,13.93
		c14.92,7.54,29.8,15.56,42.86,26.12c3.3,2.91,6.93,5.89,8.47,10.17c-2.46,2.28-4.8,4.7-7.21,7.04c-3.96,0.03-8-0.03-11.8-1.28
		c-6.15-1.92-12.29-4.84-18.9-4.08c-8.53,0.79-15.32,6.47-22.71,10.2c-3.13,1.55-6.26,3.1-9.43,4.59
		c-15.69,6.88-33.21,9.64-50.25,7.59c-3.82-0.45-7.61-1.04-11.37-1.82c-15.31-3.62-29.81-11.13-41.06-22.2
		c-11.11-10.41-18.21-24.33-23.36-38.47c-1.51-5.45-3.48-11.74-0.5-17.05c1.77-3,5.71-3.29,8.83-3.13
		c18.77,1.6,36.09,9.59,54.03,14.7c3.55,1.03,7.13,1.98,10.77,2.6299c7.57,1.75,15.3,2.6801,23.08,2.27
		C484.78,685.402,476.23,675.892,472.45,663.9319z"/>
	<path stroke="#000000" stroke-width="0.0938" d="M130.16,705.032c4.41,0.76,8.87,1.15,13.32,1.49c3.79,32.1,5.27,64.47,4.69,96.8
		c-1.07,43.63-5.98,87.1-12.92,130.16c-0.59,3.95-0.97,8.6,1.78,11.87c3.59,2.91,8.61,2.49,12.93,2.18
		c17.75-2,34.39-9.36,52.09-11.58c67.9-5.19,136.01-7.29,203.87-13.06c9.69-0.58,19.33-2.37,29.07-1.91
		c11.49,0.16,22.98,0.79,34.47,0.77c0.64-14.62-2.08-29.14-4.15-43.56c-2.12-14.65-5.32-29.16-6.78-43.89
		c0.46-25.66,1.03-51.3199,0.65-76.98c3.76,0.78,7.55,1.37,11.37,1.82c0.62,25.03,0.27,50.08,0.12,75.12
		c3.53,26.05,9.76,51.76,11.53,78.05c0.16,5.09,0.39,10.3-0.89,15.28c-0.9,3.37-3.58,6.65-7.25,6.95
		c-19.71,0.71-39.52-1.77-59.15,0.79c-67.52,6.27-135.3,8.7-202.91,13.62c-21.99,0.57-42.16,11.35-64.07,12.52
		c-7.78,0.38-16.45-1.35-21.7-7.57c-5.49-6.51-5.57-15.66-4.34-23.65c3.8-23.55,6.95-47.2,9.33-70.93
		C136.04,808.0519,136.51,756.202,130.16,705.032z"/>
	<path fill="#000002" stroke="#000002" stroke-width="0.0938" d="M590.85,735.082c5.27-4.77,10.69-10.21,17.87-11.79
		c-0.68,6.62-4.1299,12.5-7.66,17.99c-8.08,12.01-17.7,23.2-29.47,31.73c-3.63,2.54-7.57,5.01-12.08,5.43
		c0.61-4.26,2.77-8.01,4.93-11.64c5.52-8.8799,12.31-16.86,19.2-24.68C586.05,739.782,588.39,737.362,590.85,735.082z"/>
	<path stroke="#000000" stroke-width="0.0938" d="M280.12,780.762c42.9,0.21,86.71-0.85,127.84-14.4c1.54,1.92,1.7,4.86,2.73,7.15
		c-41.98,14.13-86.81,15.04-130.66,15.04C279.97,785.942,279.93,783.342,280.12,780.762z"/>
	<path stroke="#000000" stroke-width="0.0938" d="M198.97,769.922c16.2,3.18,32.72-1.15,48.99,1.05c5.05,0.75,10.21,2.8,13.38,6.98
		c2.39,3.27,2.51,7.48,3.36,11.3c3.98,20.1,8.41,40.1,12.21,60.23c3.05,15.84,6.32,31.71,7.36,47.84c0.04,2.82,0.35,6.21-1.8,8.41
		c-2.67,2.29-6.22,3.09-9.54,3.94c-9.88,2.21-19.99,3.15-30.05,4.14c-21.16,2.75-41.5,10.39-62.89,11.57
		c-4.05-0.14-9.33,0.74-11.86-3.26c-3.08-5.34-3.23-11.77-3.81-17.75c-1.17-25.4,1.07-50.78,3.17-76.06
		c1.42-16.94,3.52-33.81,5.36-50.69c0.59,3.83,0.18,7.89,0.1,11.8c-0.61,24.28-2.25,48.5099-2.86,72.79
		c-0.47,14.74-0.85,29.55,0.57,44.26c0.52,4.16,0.75,8.55,2.97,12.23c7.49,0.73,14.93-0.71,22.27-2.08c10.78-2.07,21.37-5,32.1-7.31
		c14.95-3.55,30.54-3.05,45.43-6.85c1.44-0.37,2.79-0.98,4.07-1.7c-0.34-16.94-4.08-33.57-6.82-50.24
		c-3.78-22.1-8.22-44.09-11.56-66.27c-0.68-5.06-5.57-8.14-10.2-9.09C232.53,771.2419,215.01,775.812,198.97,769.922z"/>
	<path stroke="#000000" stroke-width="0.0938" d="M375.44,817.562c20.04-3.08,39.93-8.49,57.99-17.85c1.4,2.24,2.65,4.6,3.52,7.12
		c-19.45,9.49-40.45,15.57-61.86,18.56c-25.37,3.55-51.06,4.03-76.64,3.81c0.06-2.53,0.07-5.05,0.04-7.57
		C324.18,821.512,349.98,821.332,375.44,817.562z"/>
	<path fill="#FCFFFF" stroke="#FCFFFF" stroke-width="0.0938" d="M532.2,846.892c0.63,5.45,0.5,10.94,0.47,16.42
		c-0.22,18.72-1.32,37.44-3.85,56c-0.61,4.39-2.6,8.42-4.37,12.44c-2.84,6.07-5.62,12.19-9.04,17.97
		c6.19-17.68,12.46-35.62,14-54.42C530.72,879.192,531.88,863.0519,532.2,846.892z"/>
	<path stroke="#000000" stroke-width="0.0938" d="M425.93,852.172c2.99-1.19,5.76-2.9,8.85-3.85c1.07,2.25,2.2,4.48,3.21,6.77
		c-18.51,9.28-38.6,15.1-59.02,18.26c-26.31,4.02-52.99,4.32-79.54,4.34c0-2.58,0-5.14,0.02-7.71
		c24.25,0.0099,48.58-0.29,72.66-3.4301C390.56,864.082,408.84,859.6219,425.93,852.172z"/>
	<path fill="#FEFEFE" stroke="#FEFEFE" stroke-width="0.0938" d="M506.25,979.392c5.23,2.66,11.12,3.3,16.89,3.72l0.36,0.9399
		c-1.02,4.55-1.95,9.13-3.05,13.67c-6.58,1.19-13.24,2.34-19.95,1.96C501.64,992.712,504.12,986.092,506.25,979.392z"/>
	<path stroke="#000000" stroke-width="0.0938" d="M300.75,1841.072c17.68-7.0599,36.14-12.95,55.13-14.86
		c8.17,5.76,16.1,12.23,22.03,20.37c3.96,5.46,6.9,12.59,4.6,19.33c-2.63,7.67-9.74,12.5801-16.54,16.3301
		c-14.38,7.48-30.25,11.52-45.97,15.12c-37.62,8.33-76.01,12.2999-113.97,18.71c-7.02,1-13.89,2.98-20.96,3.6
		c2.18-3.6899,6.03-6.1899,8.98-9.3099C225.47,1881.6421,261.34,1857.412,300.75,1841.072z"/>
	<path stroke="#000000" stroke-width="0.0938" d="M899.59,1831.292c29.71,4.2001,59.61,6.91,89.39,10.63
		c22.92,3.02,45.9301,7.25,67.42,16.05c29.2899,11.79,54.53,31.6799,76.6,53.9399v0.3101c-37.34,0.14-74.75,2.12-112.04-0.9
		c-20.97-1.67-42.02-4.8099-61.89-11.9399c-15.79-5.67-30.93-14.3401-41.86-27.28C907.38,1860.652,901.69,1846.1321,899.59,1831.292
		z"/>
</g>
</svg>
