<?xml version="1.0" encoding="iso-8859-1"?>
<!-- Generator: Adobe Illustrator 19.0.0, SVG Export Plug-In . SVG Version: 6.00 Build 0)  -->
<svg version="1.1" id="Layer_1" xmlns="http://www.w3.org/2000/svg" xmlns:xlink="http://www.w3.org/1999/xlink" x="0px" y="0px"
	 viewBox="0 0 512 512" style="enable-background:new 0 0 512 512;" xml:space="preserve">
<polygon style="fill:#B3D8F4;" points="256.001,225.484 113.281,320.631 113.281,504.162 398.721,504.162 398.721,320.631 "/>
<rect x="210.014" y="378.759" style="fill:#FFFFFF;" width="91.965" height="125.407"/>
<polygon style="fill:#B3D8F4;" points="144.629,249.492 144.629,201.096 113.278,201.096 113.278,270.393 "/>
<g>
	<polygon style="fill:#3D9AE2;" points="422.066,336.194 256.001,225.484 89.935,336.194 66.748,301.414 256.001,175.244 
		445.254,301.414 	"/>
	<circle style="fill:#3D9AE2;" cx="255.997" cy="164.523" r="26.126"/>
	<circle style="fill:#3D9AE2;" cx="255.997" cy="164.523" r="26.126"/>
</g>
<polygon points="293.815,191.032 285.12,204.074 434.385,303.584 419.891,325.32 256.005,216.067 92.109,325.32 77.615,303.584 
	226.879,204.074 218.184,191.032 55.875,299.237 87.762,347.058 256.005,234.906 424.238,347.058 456.125,299.237 "/>
<path d="M390.886,496.324h-81.064V370.917H202.182v125.407h-81.065V345.752h-15.676V512h301.122V345.752h-15.676v150.572H390.886z
	 M217.856,386.593h76.289v109.731h-76.289L217.856,386.593L217.856,386.593z"/>
<polygon points="121.116,208.933 136.791,208.933 136.791,227.744 152.467,227.744 152.467,193.258 105.44,193.258 105.44,248.646 
	121.116,248.646 "/>
<path d="M361.303,59.216l11.085-11.085c-64.177-64.175-168.598-64.174-232.775,0l11.085,11.085
	C208.762,1.154,303.239,1.152,361.303,59.216z"/>
<path d="M341.598,78.921c-47.2-47.198-123.996-47.196-171.194,0l11.085,11.085c41.087-41.087,107.94-41.085,149.024,0
	L341.598,78.921z"/>
<path d="M307.274,106.39c-30.591-27.03-77.186-25.573-106.08,3.321l11.085,11.085c23.048-23.05,60.216-24.218,84.616-2.66
	L307.274,106.39z"/>
<path d="M231.985,140.501c-6.417,6.416-9.949,14.944-9.949,24.016s3.533,17.602,9.949,24.016c6.623,6.621,15.317,9.931,24.016,9.931
	c8.696,0,17.395-3.312,24.016-9.931c6.415-6.416,9.948-14.944,9.948-24.016s-3.533-17.602-9.948-24.016h-0.001
	C266.773,127.26,245.225,127.26,231.985,140.501z M268.933,177.45c-7.134,7.131-18.736,7.129-25.865,0
	c-3.454-3.454-5.357-8.046-5.357-12.932s1.903-9.478,5.358-12.932c3.565-3.566,8.249-5.348,12.932-5.348
	c4.683,0,9.367,1.782,12.932,5.348C276.064,158.717,276.064,170.32,268.933,177.45z"/>
<g>
</g>
<g>
</g>
<g>
</g>
<g>
</g>
<g>
</g>
<g>
</g>
<g>
</g>
<g>
</g>
<g>
</g>
<g>
</g>
<g>
</g>
<g>
</g>
<g>
</g>
<g>
</g>
<g>
</g>
</svg>
